<svg xmlns="http://www.w3.org/2000/svg" viewBox="0 0 130 130" width="100%" height="100%">
  <!-- Bold Diamond emblem with double outline & calligraphic S for Favicon -->
  <rect x="24" y="24" width="82" height="82" rx="10" transform="rotate(45 65 65)" fill="none" stroke="#000000" stroke-width="7" stroke-linejoin="round"/>
  <rect x="30" y="30" width="70" height="70" rx="6" transform="rotate(45 65 65)" fill="none" stroke="#000000" stroke-width="3.5" stroke-linejoin="round"/>
  <path d="M 88,18 C 98,8 82,2 66,14 C 44,28 38,50 58,58 C 78,66 84,82 62,102 C 44,118 28,106 38,92 C 46,82 56,86 50,94 C 44,102 32,104 46,94 C 64,80 60,64 48,56 C 32,46 34,24 58,12 C 74,4 98,10 88,18 Z" fill="#000000" stroke="#000000" stroke-width="1.5"/>
  <path d="M 32,84 C 22,92 18,104 36,108 C 52,110 72,100 86,112 C 94,118 82,126 70,120" stroke="#000000" stroke-width="5" fill="none" stroke-linecap="round"/>
</svg>