<svg xmlns="http://www.w3.org/2000/svg" viewBox="0 0 580 140" width="100%" height="100%">
  <defs>
    <style>
      @import url('https://fonts.googleapis.com/css2?family=Great+Vibes&amp;display=swap');
      .sandreens-text {
        font-family: 'Great Vibes', 'Alex Brush', cursive;
        font-size: 94px;
        fill: #000000;
        stroke: #000000;
        stroke-width: 1.2px;
        font-weight: bold;
        letter-spacing: 3px;
        paint-order: fill stroke;
      }
    </style>
  </defs>

  <!-- ICON: Diamond emblem with double outline & calligraphic S -->
  <g transform="translate(10, 8)">
    <rect x="24" y="24" width="80" height="80" rx="10" transform="rotate(45 64 64)" fill="none" stroke="#000000" stroke-width="5.5" stroke-linejoin="round"/>
    <rect x="30" y="30" width="68" height="68" rx="6" transform="rotate(45 64 64)" fill="none" stroke="#000000" stroke-width="2.8" stroke-linejoin="round"/>
    <path d="M 88,18 C 98,8 82,2 66,14 C 44,28 38,50 58,58 C 78,66 84,82 62,102 C 44,118 28,106 38,92 C 46,82 56,86 50,94 C 44,102 32,104 46,94 C 64,80 60,64 48,56 C 32,46 34,24 58,12 C 74,4 98,10 88,18 Z" fill="#000000"/>
    <path d="M 32,84 C 22,92 18,104 36,108 C 52,110 72,100 86,112 C 94,118 82,126 70,120" stroke="#000000" stroke-width="4" fill="none" stroke-linecap="round"/>
  </g>

  <!-- WORDMARK: "Sandreens" -->
  <text x="152" y="98" class="sandreens-text">Sandreens</text>
</svg>
